# xmcd
#
# Track frame offsets:
#	150
#	7195
#	16767
#	28377
#	39968
#	53348
#	65429
#	78031
#	89966
#	96011
#	109289
#	119479
#	128231
#	138011
#	148372
#	158035
#
# Disc length: 2229 seconds
#
# Revision: 1
# Processed by: cddbd v1.5.1PL0 Copyright (c) Steve Scherf et al.
# Submitted via: audiograbber 1.83.01
#
DISCID=d508b310
DTITLE=Dudely Hill - From A Northern Family
DYEAR=1900
DGENRE=Bluegrass
TTITLE0=Leather Britches
TTITLE1=Spotted Pony
TTITLE2=Buffalo Gals
TTITLE3=Off She Goes
TTITLE4=Fisher's Hornpipe
TTITLE5=Weber's Drift
TTITLE6=Bitter Creek
TTITLE7=Panhandle Rag
TTITLE8=Sally Ann
TTITLE9=Whiskey Before Breakfast
TTITLE10=St. Anne's Reel
TTITLE11=Downfall of Paris
TTITLE12=Marching Jaybird
TTITLE13=Herman's Hornpipe
TTITLE14=Cotton Pathc Rag
TTITLE15=South
EXTD=
EXTT0=
EXTT1=
EXTT2=
EXTT3=
EXTT4=
EXTT5=
EXTT6=
EXTT7=
EXTT8=
EXTT9=
EXTT10=
EXTT11=
EXTT12=
EXTT13=
EXTT14=
EXTT15=
PLAYORDER=
